<svg xmlns="http://www.w3.org/2000/svg" viewBox="0 0 300 260"><text x="20" y="22" font-size="12" fill="#586069">C#</text><text x="230" y="36" font-size="12" fill="#586069">90.86%</text><path fill="#e1e4e8" d="M20 27h200v8H20"/><path fill="#178600" d="M20 27h182v8H20"/><text x="20" y="52" font-size="12" fill="#586069">Python</text><text x="230" y="66" font-size="12" fill="#586069">8.13%</text><path fill="#e1e4e8" d="M20 57h200v8H20"/><path fill="#3572A5" d="M20 57h17v8H20"/><text x="20" y="82" font-size="12" fill="#586069">PowerShell</text><text x="230" y="96" font-size="12" fill="#586069">0.92%</text><path fill="#e1e4e8" d="M20 87h200v8H20"/><path fill="#012456" d="M20 87h2v8H20"/><text x="20" y="112" font-size="12" fill="#586069">Batchfile</text><text x="230" y="126" font-size="12" fill="#586069">0.08%</text><path fill="#e1e4e8" d="M20 117h200v8H20"/><path fill="#C1F12E" d="M20 117h1v8H20"/><text x="20" y="142" font-size="12" fill="#586069">HTML</text><text x="230" y="156" font-size="12" fill="#586069">0.00%</text><path fill="#e1e4e8" d="M20 147h200v8H20"/><path fill="#e34c26" d="M20 147h1v8H20"/><text x="20" y="172" font-size="12" fill="#586069">PHP</text><text x="230" y="186" font-size="12" fill="#586069">0.00%</text><path fill="#e1e4e8" d="M20 177h200v8H20"/><path fill="#4F5D95" d="M20 177h1v8H20"/><text x="20" y="202" font-size="12" fill="#586069">CSS</text><text x="230" y="216" font-size="12" fill="#586069">0.00%</text><path fill="#e1e4e8" d="M20 207h200v8H20"/><path fill="#563d7c" d="M20 207h1v8H20"/></svg>