<svg xmlns="http://www.w3.org/2000/svg" viewBox="0 0 300 257"><style>text{fill:#586069}path{fill:#e1e4e8}@media(prefers-color-scheme:dark){svg{background-color:#0d1117}text{fill:#8b949e}path{fill:#21262d}}</style><text x="20" y="22" font-size="12">C#</text><text x="230" y="36" font-size="12">91.17%</text><path d="M20 27h200v8H20"/><path style="fill:#178600" d="M20 27h183v8H20"/><text x="20" y="52" font-size="12">Python</text><text x="230" y="66" font-size="12">7.72%</text><path d="M20 57h200v8H20"/><path style="fill:#3572A5" d="M20 57h16v8H20"/><text x="20" y="82" font-size="12">PowerShell</text><text x="230" y="96" font-size="12">0.90%</text><path d="M20 87h200v8H20"/><path style="fill:#012456" d="M20 87h2v8H20"/><text x="20" y="112" font-size="12">Batchfile</text><text x="230" y="126" font-size="12">0.08%</text><path d="M20 117h200v8H20"/><path style="fill:#C1F12E" d="M20 117h1v8H20"/><text x="20" y="142" font-size="12">SCSS</text><text x="230" y="156" font-size="12">0.07%</text><path d="M20 147h200v8H20"/><path style="fill:#c6538c" d="M20 147h1v8H20"/><text x="20" y="172" font-size="12">HTML</text><text x="230" y="186" font-size="12">0.05%</text><path d="M20 177h200v8H20"/><path style="fill:#e34c26" d="M20 177h1v8H20"/><text x="20" y="202" font-size="12">PHP</text><text x="230" y="216" font-size="12">0.00%</text><path d="M20 207h200v8H20"/><path style="fill:#4F5D95" d="M20 207h1v8H20"/><text x="20" y="232" font-size="12">CSS</text><text x="230" y="246" font-size="12">0.00%</text><path d="M20 237h200v8H20"/><path style="fill:#563d7c" d="M20 237h1v8H20"/></svg>